<svg width="1170" height="232" viewBox="0 0 1170 232" fill="none" xmlns="http://www.w3.org/2000/svg"><path d="M185.617 81.4254C198.667 65.8716 196.638 42.6826 181.086 29.6313C165.534 16.5801 142.347 18.6089 129.297 34.1627L31.6241 150.575C18.5741 166.128 20.6026 189.317 36.1551 202.369C51.7076 215.42 74.8945 213.391 87.9446 197.837L185.617 81.4254Z" fill="#2160FD"/><path fill-rule="evenodd" clip-rule="evenodd" d="M194.328 211.649C194.456 211.65 194.585 211.651 194.714 211.651C216.412 211.651 234.002 193.835 234.002 171.859C234.002 149.882 216.412 132.066 194.714 132.066C183.631 132.066 173.545 136.536 166.403 144.012L125.439 192.163C118.937 199.804 124.298 211.649 134.257 211.649H194.328Z" fill="#1C1C1C"/><path d="M654.568 64.8631C648.629 64.8631 643.653 63.0465 639.639 59.4128C635.787 55.6215 633.859 50.961 633.859 45.4316C633.859 39.9025 635.787 35.3207 639.639 31.6873C643.653 27.8956 648.629 26 654.568 26C660.506 26 665.403 27.8956 669.254 31.6873C673.269 35.3207 675.276 39.9025 675.276 45.4316C675.276 50.961 673.269 55.6215 669.254 59.4128C665.403 63.0465 660.506 64.8631 654.568 64.8631ZM664.81 80.5034C668.331 80.5034 671.182 83.347 671.182 86.855V205.434C671.182 208.942 668.331 211.785 664.81 211.785H643.844C640.324 211.785 637.472 208.942 637.472 205.434V86.855C637.472 83.347 640.324 80.5034 643.844 80.5034H664.81Z" fill="#1C1C1C"/><path d="M1131.62 36.4316C1135.14 36.4316 1137.99 39.2753 1137.99 42.7833V205.514C1137.99 209.022 1135.14 211.866 1131.62 211.866H1111.07C1107.55 211.866 1104.7 209.022 1104.7 205.514V42.7833C1104.7 39.2753 1107.55 36.4316 1111.07 36.4316H1131.62Z" fill="#1C1C1C"/><path d="M1080.46 78.5273C1083.98 78.5273 1086.83 81.371 1086.83 84.879V203.514C1086.83 207.022 1083.98 209.866 1080.46 209.866H1060.64C1057.12 209.866 1054.27 207.022 1054.27 203.514V187.008C1054.27 186.622 1053.51 186.523 1053.39 186.887C1050.9 194.131 1044.7 202.337 1036.41 206.784C1029.79 210.336 1022.14 211.525 1014.06 211.525C1003.75 211.525 994.637 209.392 986.707 205.124C978.781 200.699 972.517 194.298 967.92 185.921C963.482 177.387 961.262 167.272 961.262 155.576V84.879C961.262 81.371 964.113 78.5273 967.633 78.5273H988.186C991.703 78.5273 994.557 81.371 994.557 84.879V150.835C994.557 161.266 997.173 169.326 1002.4 175.016C1007.64 180.548 1014.77 183.314 1023.81 183.314C1033 183.314 1040.22 180.548 1045.45 175.016C1050.68 169.326 1053.3 161.266 1053.3 150.835V84.879C1053.3 81.371 1056.15 78.5273 1059.67 78.5273H1080.46Z" fill="#1C1C1C"/><path d="M878.822 211.001C866.136 211.001 854.721 208.235 844.574 202.703C834.427 197.013 826.421 189.032 820.553 178.758C814.847 168.485 811.992 156.632 811.992 143.198C811.992 129.764 814.926 117.91 820.792 107.637C826.816 97.3636 834.981 89.4612 845.288 83.9292C855.594 78.2394 867.089 75.3945 879.772 75.3945C892.455 75.3945 903.949 78.2394 914.256 83.9292C924.562 89.4612 932.648 97.3636 938.516 107.637C944.541 117.91 947.551 129.764 947.551 143.198C947.551 156.632 944.461 168.485 938.277 178.758C932.253 189.032 924.008 197.013 913.542 202.703C903.239 208.235 891.665 211.001 878.822 211.001ZM878.822 182.078C884.847 182.078 890.473 180.655 895.707 177.81C901.098 174.807 905.377 170.382 908.55 164.534C911.72 158.686 913.306 151.574 913.306 143.198C913.306 130.712 909.977 121.15 903.315 114.512C896.816 107.716 888.81 104.318 879.297 104.318C869.784 104.318 861.778 107.716 855.276 114.512C848.936 121.15 845.762 130.712 845.762 143.198C845.762 155.684 848.856 165.324 855.04 172.12C861.38 178.758 869.309 182.078 878.822 182.078Z" fill="#1C1C1C"/><path d="M582.108 110.585C582.108 102.577 589.955 89.037 598.754 84.5559C604.145 81.8117 609.879 79.836 616.184 79.03C619.673 78.5838 622.537 81.4725 622.537 84.9805V107.127C622.537 110.635 619.686 113.479 616.165 113.479H613.738C603.275 113.479 595.345 115.929 589.955 120.828C584.724 125.728 582.108 134.262 582.108 146.432V205.512C582.108 209.02 579.257 211.864 575.736 211.864H555.184C551.664 211.864 548.812 209.02 548.812 205.512V86.8771C548.812 83.3691 551.664 80.5255 555.184 80.5255H575.736C579.257 80.5255 582.108 83.3691 582.108 86.8771V110.585Z" fill="#1C1C1C"/><path d="M531.307 140.353C531.307 142.987 531.208 145.475 531.014 147.816C530.756 150.91 528.074 153.155 524.958 153.155H440.962C437.235 153.155 434.24 156.356 435.129 159.965C436.68 166.269 439.646 171.427 444.027 175.439C449.892 180.813 457.108 183.5 465.669 183.5C476.612 183.5 484.765 179.353 490.12 171.059C491.436 169.024 493.602 167.616 496.03 167.616H519.414C523.683 167.616 526.745 171.732 524.977 175.605C520.813 184.723 514.518 192.491 506.097 198.91C495.316 206.97 482.079 211.001 466.382 211.001C453.699 211.001 442.281 208.235 432.134 202.703C422.146 197.013 414.299 189.032 408.59 178.758C403.041 168.485 400.266 156.632 400.266 143.198C400.266 129.605 403.041 117.673 408.59 107.399C414.14 97.1263 421.907 89.2239 431.898 83.6923C441.886 78.1607 453.381 75.3945 466.382 75.3945C478.906 75.3945 490.085 78.0816 499.914 83.4551C509.904 88.8289 517.592 96.4943 522.983 106.451C528.532 116.25 531.307 127.551 531.307 140.353ZM490.334 130.87C493.899 130.87 496.858 127.92 496.081 124.452C494.819 118.856 491.978 114.199 487.549 110.482C481.525 105.266 474.149 102.658 465.43 102.658C457.185 102.658 450.211 105.187 444.502 110.244C440.545 113.737 437.677 118.234 435.897 123.735C434.705 127.414 437.744 130.87 441.622 130.87H490.334Z" fill="#1C1C1C"/><path d="M325.186 172.126C326.145 175.036 330.273 175.036 331.236 172.126L360.065 84.8915C360.925 82.2871 363.365 80.5273 366.115 80.5273H387.788C392.226 80.5273 395.304 84.9351 393.765 89.0833L350.497 205.645C349.108 209.384 345.534 211.866 341.532 211.866H314.424C310.419 211.866 306.838 209.377 305.455 205.631L262.398 89.0738C260.867 84.9271 263.945 80.5273 268.377 80.5273H290.307C293.056 80.5273 295.496 82.2871 296.357 84.8915L325.186 172.126Z" fill="#1C1C1C"/><path d="M747.758 211.375C737.082 211.375 727.505 209.465 719.031 205.645C710.553 201.666 703.802 196.334 698.778 189.649C695.277 184.839 692.913 179.658 691.686 174.107C690.899 170.54 693.859 167.446 697.523 167.446H718.336C721.557 167.446 724.144 169.917 725.46 172.845C726.699 175.602 728.636 178.02 731.274 180.099C735.671 183.442 741.087 185.113 747.522 185.113C753.801 185.113 758.669 183.84 762.123 181.293C765.733 178.747 767.539 175.484 767.539 171.504C767.539 167.208 765.341 164.024 760.944 161.955C756.707 159.727 749.876 157.339 740.459 154.793C730.726 152.405 722.72 149.938 716.441 147.392C710.317 144.845 704.978 140.946 700.425 135.693C696.032 130.441 693.834 123.358 693.834 114.446C693.834 107.124 695.873 100.439 699.957 94.3911C704.194 88.3431 710.161 83.5683 717.852 80.0666C725.702 76.5653 734.884 74.8145 745.403 74.8145C760.944 74.8145 773.347 78.7934 782.608 86.7514C790.251 93.1875 795.062 101.52 797.04 111.75C797.738 115.366 794.775 118.504 791.079 118.504H772.187C768.89 118.504 766.284 115.912 765.022 112.872C763.913 110.196 762.161 107.935 759.765 106.09C756 102.906 750.896 101.315 744.46 101.315C738.496 101.315 733.864 102.429 730.567 104.657C727.429 106.885 725.858 109.989 725.858 113.968C725.858 118.425 728.056 121.847 732.453 124.234C736.846 126.462 743.677 128.77 752.938 131.158C762.359 133.545 770.129 136.012 776.249 138.558C782.372 141.105 787.632 145.084 792.029 150.495C796.581 155.748 798.936 162.751 799.092 171.504C799.092 179.144 796.973 185.988 792.733 192.037C788.652 198.084 782.688 202.859 774.838 206.361C767.144 209.703 758.118 211.375 747.758 211.375Z" fill="#1C1C1C"/></svg>